<svg xmlns="http://www.w3.org/2000/svg" width="26.426" height="20.554" viewBox="0 0 26.426 20.554">
  <path id="Icon_awesome-shopping-basket" data-name="Icon awesome-shopping-basket" d="M26.426,10.692v.734a1.1,1.1,0,0,1-1.1,1.1h-.367l-1.2,8.386A2.2,2.2,0,0,1,21.58,22.8H4.846a2.2,2.2,0,0,1-2.18-1.891l-1.2-8.386H1.1a1.1,1.1,0,0,1-1.1-1.1v-.734a1.1,1.1,0,0,1,1.1-1.1h3.09l4.9-6.736a1.468,1.468,0,0,1,2.375,1.727L7.821,9.59H18.6L14.962,4.582a1.468,1.468,0,0,1,2.375-1.727l4.9,6.736h3.09A1.1,1.1,0,0,1,26.426,10.692ZM14.314,18.766V13.628a1.1,1.1,0,0,0-2.2,0v5.138a1.1,1.1,0,1,0,2.2,0Zm5.138,0V13.628a1.1,1.1,0,0,0-2.2,0v5.138a1.1,1.1,0,0,0,2.2,0Zm-10.277,0V13.628a1.1,1.1,0,0,0-2.2,0v5.138a1.1,1.1,0,0,0,2.2,0Z" transform="translate(0 -2.25)" fill="#f0f0f0"/>
</svg>
