<?xml version="1.0" encoding="iso-8859-1"?>
<!-- Generator: Adobe Illustrator 16.0.0, SVG Export Plug-In . SVG Version: 6.00 Build 0)  -->
<!DOCTYPE svg PUBLIC "-//W3C//DTD SVG 1.1//EN" "http://www.w3.org/Graphics/SVG/1.1/DTD/svg11.dtd">
<svg version="1.1" id="Capa_1" xmlns="http://www.w3.org/2000/svg" xmlns:xlink="http://www.w3.org/1999/xlink" x="0px" y="0px"
	 width="27.834px" height="27.834px" viewBox="0 0 27.834 27.834" style="enable-background:new 0 0 27.834 27.834;"
	 xml:space="preserve">

<g>
	<path d="M13.917,0C6.244,0,0,6.243,0,13.917s6.243,13.917,13.917,13.917s13.917-6.243,13.917-13.917S21.59,0,13.917,0z
		 M13.917,24.833C7.897,24.833,3,19.938,3,13.916C3,7.896,7.897,2.999,13.917,2.999c6.021,0,10.917,4.897,10.917,10.917
		C24.834,19.938,19.938,24.833,13.917,24.833z M11.292,11.292l9.5-4.251l-4.25,9.501l-9.5,4.251L11.292,11.292z" fill="#F0F0F0"/>
</g>
<g>
</g>
<g>
</g>
<g>
</g>
<g>
</g>
<g>
</g>
<g>
</g>
<g>
</g>
<g>
</g>
<g>
</g>
<g>
</g>
<g>
</g>
<g>
</g>
<g>
</g>
<g>
</g>
<g>
</g>
</svg>
