<svg xmlns="http://www.w3.org/2000/svg" width="24.092" height="22.371" viewBox="0 0 24.092 22.371">
  <path id="Icon_ionic-ios-star-outline" data-name="Icon ionic-ios-star-outline" d="M25.428,11.119H17.517l-2.4-7.174a.871.871,0,0,0-1.635,0l-2.4,7.174H3.11a.863.863,0,0,0-.86.86.632.632,0,0,0,.016.145.827.827,0,0,0,.36.608l6.5,4.582-2.5,7.255a.863.863,0,0,0,.3.968.832.832,0,0,0,.484.21,1.054,1.054,0,0,0,.538-.194L14.3,21.03l6.346,4.523a1.008,1.008,0,0,0,.538.194.773.773,0,0,0,.479-.21.852.852,0,0,0,.3-.968l-2.5-7.255,6.448-4.625.156-.134a.9.9,0,0,0,.28-.575A.911.911,0,0,0,25.428,11.119Zm-6.841,4.974a1.51,1.51,0,0,0-.549,1.71l1.619,4.716a.216.216,0,0,1-.328.247L15.167,19.8a1.5,1.5,0,0,0-.877-.28,1.475,1.475,0,0,0-.871.28L9.257,22.762a.215.215,0,0,1-.328-.247L10.548,17.8a1.515,1.515,0,0,0-.554-1.721L5.638,13.007a.216.216,0,0,1,.124-.393H11.07a1.5,1.5,0,0,0,1.425-1.027l1.592-4.743a.216.216,0,0,1,.409,0l1.592,4.743a1.5,1.5,0,0,0,1.425,1.027h5.233a.213.213,0,0,1,.124.387Z" transform="translate(-2.25 -3.375)" fill="#f0f0f0"/>
</svg>
