<svg xmlns="http://www.w3.org/2000/svg" width="289.708" height="271.703" viewBox="0 0 289.708 271.703">
  <path id="Icon_map-food" data-name="Icon map-food" d="M235.56,57.894,216.266,209.142H151.1l-19.216-152h79.561L227.166,2.825l8.914,2.687-15.088,52.27,14.568.113ZM122.666,145.4s2.437-19.613-31.357-19.613H37.49C3.745,125.785,6.133,145.4,6.133,145.4H122.666ZM6.133,189.529S3.745,209.142,37.49,209.142H91.314c33.794,0,31.357-19.613,31.357-19.613H6.133Zm111.477-9.807c5.531,0,10-5.462,10-12.253,0-6.83-4.467-12.263-10-12.263H10.723c-5.506,0-10,5.433-10,12.263,0,6.791,4.5,12.253,10,12.253H117.611Z" transform="translate(-1.6 74.189) rotate(-19)" fill="#403042"/>
</svg>