<svg xmlns="http://www.w3.org/2000/svg" width="244.571" height="207.754" viewBox="0 0 244.571 207.754">
  <g id="Icon_ionic-logo-game-controller-b" data-name="Icon ionic-logo-game-controller-b" transform="translate(-4.324 61.938) rotate(-19)">
    <path id="Path_54" data-name="Path 54" d="M17.085,14.386a8.99,8.99,0,1,0,8.943,8.99A8.959,8.959,0,0,0,17.085,14.386Z" transform="translate(32.958 42.648)" fill="#403042"/>
    <path id="Path_55" data-name="Path 55" d="M203.514,77.561c-9.824-41.009-20.2-62.788-41.009-68.951A41.333,41.333,0,0,0,150.6,6.757c-12.789,0-21.732,6.812-44.531,6.812S74.324,6.757,61.535,6.757A40.875,40.875,0,0,0,49.626,8.611C28.82,14.773,18.44,36.6,8.617,77.561-1.207,118.57.6,148.18,12.185,153.695a13.518,13.518,0,0,0,5.792,1.3c10.055,0,20.9-11.028,31.371-24.1C61.257,116.022,64.222,115.6,100.459,115.6h11.26c36.19,0,39.2.371,51.111,15.292,10.426,13.067,21.315,24.1,31.371,24.1a13.67,13.67,0,0,0,5.792-1.3C211.531,148.134,213.291,118.524,203.514,77.561ZM50.089,84.373a18.351,18.351,0,1,1,18.164-18.35A18.294,18.294,0,0,1,50.089,84.373Zm80.118-9.036a9.314,9.314,0,1,1,9.314-9.314A9.314,9.314,0,0,1,130.208,75.337ZM150.55,95.68a9.291,9.291,0,1,1,9.314-9.268A9.3,9.3,0,0,1,150.55,95.68Zm0-40.685a9.314,9.314,0,1,1,9.314-9.314A9.314,9.314,0,0,1,150.55,54.995Zm20.342,20.342a9.314,9.314,0,1,1,9.314-9.314A9.314,9.314,0,0,1,170.892,75.337Z" transform="translate(0 0)" fill="#403042"/>
  </g>
</svg>
