<svg xmlns="http://www.w3.org/2000/svg" width="15.777" height="15.777" viewBox="0 0 15.777 15.777">
  <path id="Icon_metro-earth" data-name="Icon metro-earth" d="M10.459,1.928a7.888,7.888,0,1,0,7.888,7.888,7.888,7.888,0,0,0-7.888-7.888Zm0,14.791a6.879,6.879,0,0,1-2.731-.562l3.592-4.041a.493.493,0,0,0,.125-.328V10.309a.493.493,0,0,0-.493-.493c-1.741,0-3.578-1.81-3.6-1.828a.493.493,0,0,0-.349-.144H5.036a.493.493,0,0,0-.493.493V11.3a.493.493,0,0,0,.273.441l1.7.85v2.895A6.907,6.907,0,0,1,4.221,6.858h1.8a.493.493,0,0,0,.349-.144L8.343,4.742a.493.493,0,0,0,.144-.349V3.2a6.922,6.922,0,0,1,5,.41c-.064.054-.126.11-.186.17a2.959,2.959,0,0,0,2.09,5.05q.073,0,.147,0a11.578,11.578,0,0,1-.129,5.737.492.492,0,0,0-.013.08,6.881,6.881,0,0,1-4.932,2.075Z" transform="translate(-2.571 -1.928)" fill="#f0f0f0"/>
</svg>
