<svg xmlns="http://www.w3.org/2000/svg" width="68.304" height="47.812" viewBox="0 0 68.304 47.812">
  <path id="Icon_awesome-money-bill-wave-alt" data-name="Icon awesome-money-bill-wave-alt" d="M66.292,4.647a31.6,31.6,0,0,0-12.424-2.4C40.724,2.249,27.58,8.9,14.434,8.9A32.381,32.381,0,0,1,4.546,7.439a3.649,3.649,0,0,0-1.1-.173A3.4,3.4,0,0,0,0,10.661V44.52a3.394,3.394,0,0,0,2.011,3.144,31.587,31.587,0,0,0,12.424,2.4c13.145,0,26.29-6.654,39.435-6.654a32.381,32.381,0,0,1,9.888,1.464,3.649,3.649,0,0,0,1.1.173A3.4,3.4,0,0,0,68.3,41.65V7.792A3.4,3.4,0,0,0,66.292,4.647ZM34.152,36.4c-4.716,0-8.538-4.588-8.538-10.245s3.823-10.245,8.538-10.245,8.538,4.587,8.538,10.245S38.866,36.4,34.152,36.4Z" transform="translate(0 -2.25)" fill="#312533"/>
</svg>
