<svg xmlns="http://www.w3.org/2000/svg" width="27" height="27" viewBox="0 0 27 27">
  <circle id="Ellipse_7" data-name="Ellipse 7" cx="13.5" cy="13.5" r="13.5" fill="#4c394e"/>
  <path id="Icon_awesome-twitter" data-name="Icon awesome-twitter" d="M14.657,6.687c.01.145.01.29.01.435a9.461,9.461,0,0,1-9.526,9.526A9.461,9.461,0,0,1,0,15.146a6.926,6.926,0,0,0,.809.041,6.705,6.705,0,0,0,4.157-1.43,3.354,3.354,0,0,1-3.13-2.322,4.222,4.222,0,0,0,.632.052,3.541,3.541,0,0,0,.881-.114A3.349,3.349,0,0,1,.663,8.087V8.045a3.372,3.372,0,0,0,1.513.425A3.353,3.353,0,0,1,1.14,3.992a9.517,9.517,0,0,0,6.9,3.5,3.78,3.78,0,0,1-.083-.767,3.351,3.351,0,0,1,5.794-2.291A6.592,6.592,0,0,0,15.88,3.63a3.339,3.339,0,0,1-1.472,1.845,6.712,6.712,0,0,0,1.928-.518,7.2,7.2,0,0,1-1.679,1.731Z" transform="translate(5.332 3.739)" fill="#f0f0f0"/>
</svg>
