<svg xmlns="http://www.w3.org/2000/svg" width="27" height="27" viewBox="0 0 27 27">
  <circle id="Ellipse_8" data-name="Ellipse 8" cx="13.5" cy="13.5" r="13.5" fill="#4c394e"/>
  <path id="Icon_awesome-pinterest-p" data-name="Icon awesome-pinterest-p" d="M8.153.457C4.053.457,0,3.191,0,7.615c0,2.814,1.583,4.412,2.542,4.412.4,0,.623-1.1.623-1.415,0-.372-.947-1.163-.947-2.71A5.4,5.4,0,0,1,7.829,2.411c2.722,0,4.736,1.547,4.736,4.388,0,2.122-.851,6.1-3.609,6.1A1.775,1.775,0,0,1,7.11,11.152c0-1.511,1.055-2.974,1.055-4.532,0-2.646-3.753-2.166-3.753,1.031A4.7,4.7,0,0,0,4.8,9.677c-.552,2.374-1.679,5.911-1.679,8.357,0,.755.108,1.5.18,2.254.136.152.068.136.276.06,2.014-2.758,1.942-3.3,2.854-6.906A3.242,3.242,0,0,0,9.2,14.881c4.244,0,6.151-4.137,6.151-7.865C15.347,3.047,11.918.457,8.153.457Z" transform="translate(5.826 3.323)" fill="#f0f0f0"/>
</svg>
