<svg xmlns="http://www.w3.org/2000/svg" width="181.249" height="58.59" viewBox="0 0 181.249 58.59">
  <path id="Icon_payment-visa" data-name="Icon payment-visa" d="M33.1,24.831c-.71-3.632-3.451-4.78-6.637-4.78H2.745L2.571,21.2C18.852,25.36,32.219,34.21,38.239,50.938Zm6.638,33.984-1.5-7.877c-3.1-8.232-10.625-15.843-19.122-19.3L31.065,76.78h15.49l23.1-56.731H54.076L39.741,58.815ZM81.073,76.866l9.2-56.814H75.583L66.378,76.866Zm40.087-57.79c-14.514,0-24.688,7.7-24.778,18.759-.091,8.147,7.257,12.657,12.83,15.4,5.755,2.742,7.612,4.6,7.612,7.076,0,3.806-4.6,5.49-8.76,5.49-5.929,0-9.115-.71-13.806-2.922l-1.948-.973L90.274,74.652c3.451,1.593,9.735,3.012,16.372,3.012,15.4.091,25.4-7.612,25.578-19.379,0-6.463-3.98-11.328-12.392-15.4-5.129-2.561-8.225-4.426-8.225-7.076,0-2.387,2.652-4.87,8.406-4.87a24.411,24.411,0,0,1,10.973,2.13l1.329.7,2.032-12.3a36.51,36.51,0,0,0-13.186-2.391Zm39.474.975c-3.542,0-6.2,1.064-7.7,4.78L131.16,76.866h15.4c2.483-6.987,3.1-8.5,3.1-8.5h18.759s.446,1.948,1.767,8.5H183.82L171.963,20.051H160.634Zm-6.819,36.641s1.238-3.277,5.845-15.843c-.091.091,1.238-3.277,1.948-5.4l1.058,4.87c2.742,13.541,3.368,16.372,3.368,16.372h-12.22Z" transform="translate(-2.571 -19.076)" fill="#312533"/>
</svg>
