<svg xmlns="http://www.w3.org/2000/svg" width="164.774" height="90.625" viewBox="0 0 164.774 90.625">
  <path id="Icon_payment-american-express" data-name="Icon payment-american-express" d="M3.973,106.975V58.516H11.91L13.7,54.153H17.63l1.787,4.363H35.009v-3.29l1.359,3.29h8.08l1.432-3.36v3.36H84.569v-7.08l.716-.073c.643,0,.714.5.714,1v6.15h19.954V56.872c4.649,2.431,11.013,1.644,15.876,1.644l1.787-4.363h4.006l1.787,4.363h16.235V54.369l2.431,4.147h13.016V31.482H148.22v3.146l-1.787-3.146H133.2v3.146l-1.644-3.146H113.75a16.242,16.242,0,0,0-7.8,1.573V31.482h-12.3v1.573a7.56,7.56,0,0,0-5.22-1.573H43.52l-3.074,6.937L37.37,31.482H23.209v3.146l-1.573-3.146H9.552l-5.579,12.8V16.35H168.745V64.809h-8.58a9.714,9.714,0,0,0-5.793,1.573V64.809H141.713c-1.787,0-4.219.284-5.579,1.573V64.809h-22.6v1.573a11.234,11.234,0,0,0-6.221-1.573H92.366v1.573c-1.5-1.43-4.577-1.573-6.507-1.573H69.125l-3.86,4.147-3.576-4.147H36.73V91.842H61.256l3.933-4.22,3.719,4.22H84V85.477h1.5a16.538,16.538,0,0,0,6.436-.93v7.3h12.443V84.761h.573c.714,0,.859.072.859.859v6.222h37.83a10.72,10.72,0,0,0,6.293-1.716v1.716h12.015a15.727,15.727,0,0,0,6.8-1.216v16.349H3.973Zm49.99-52.321h-4.72V39.492L42.521,54.653H38.445L31.724,39.492V54.653H22.283L20.5,50.361H10.839L9.052,54.653H4.045l8.3-19.381h6.866l7.866,18.381V35.272h7.582l6.079,13.159L46.24,35.272h7.723V54.653Zm-35.113-8.3-3.219-7.723-3.146,7.723H18.85ZM79.924,81.544v6.509H70.912l-5.72-6.436-5.936,6.436H40.948V68.671H59.541l5.722,6.366,5.865-6.366h14.8c4.363,0,7.8,1.5,7.8,6.366,0,7.794-8.511,6.507-13.8,6.507ZM62.186,78.324l-5.006-5.65H45.524V76.18H55.68v3.933H45.524v3.863H56.9l5.291-5.651ZM72.914,54.653H57.4V35.272H72.914v4.076H62.043v3.505H72.628v3.933H62.043V50.65H72.914Zm2.36,31.61V70.745L68.193,78.4ZM91.436,45.714c2.646.93,3.076,2.576,3.076,5.149v3.792H89.863c-.072-4.147,1-7.009-4.147-7.009H80.71v7.009H76.134V35.272l10.942.072c3.719,0,7.65.571,7.65,5.149a5.582,5.582,0,0,1-3.29,5.22ZM85.93,72.675H79.924V77.61h5.936c1.646,0,2.931-.787,2.931-2.576,0-1.716-1.285-2.36-2.86-2.36Zm.643-33.326H80.71v4.292H86.5c1.574,0,3.076-.357,3.076-2.217C89.579,39.635,88.005,39.349,86.573,39.349ZM111.247,79.04c2.576.93,3.076,2.646,3.076,5.149v3.863h-4.649V84.833c0-3.292-1.073-3.863-4.147-3.863h-4.936v7.081H95.943V68.671h11.013c3.647,0,7.582.645,7.582,5.222a5.442,5.442,0,0,1-3.29,5.148Zm-9.155-24.387h-4.72V35.272h4.72V54.653Zm4.365,18.022h-5.865v4.363h5.793c1.574,0,3.074-.357,3.074-2.289,0-1.787-1.571-2.074-3-2.074Zm50.489-18.022h-6.579l-8.726-14.518V54.653H132.2l-1.86-4.292h-9.582l-1.787,4.292h-5.363c-6.365,0-9.227-3.292-9.227-9.512,0-6.507,2.933-9.869,9.512-9.869H118.4v4.221c-4.863-.073-9.3-1.145-9.3,5.506,0,3.29.786,5.579,4.506,5.579h2.074l6.579-15.232H129.2l7.8,18.308V35.345h7.08l8.153,13.445V35.345h4.72V54.654Zm-24.387,33.4H117.111V68.671h15.448v4.006h-10.8v3.505h10.585v3.933H121.76v3.863l10.8.071v4Zm-3.79-41.694-3.147-7.723L122.4,46.358ZM144.36,88.052h-9.012V83.905h9.012c1.144,0,2.431-.286,2.431-1.787,0-4.147-11.942,1.573-11.942-7.652,0-3.933,3-5.793,6.579-5.793h9.3v4.076h-8.511c-1.216,0-2.575.216-2.575,1.787,0,4.219,12.015-1.93,12.015,7.366,0,4.575-3.146,6.15-7.294,6.15Zm24.387-2.5c-1.359,2-4.006,2.5-6.293,2.5h-8.941V83.905h8.939c1.145,0,2.36-.357,2.36-1.787,0-4.076-11.942,1.573-11.942-7.652,0-3.933,3.076-5.793,6.652-5.793h9.225v4.076h-8.439c-1.287,0-2.575.216-2.575,1.787,0,3.433,8.082-.071,11.012,3.79v7.223Z" transform="translate(-3.973 -16.35)" fill="#312533"/>
</svg>
