<svg xmlns="http://www.w3.org/2000/svg" width="215.621" height="239.274" viewBox="0 0 215.621 239.274">
  <path id="Icon_awesome-award" data-name="Icon awesome-award" d="M37.1,138.537c-3.32-3.32-1.589-2.384-9.6-4.527a27.563,27.563,0,0,1-9.715-5.089L.459,171.418a6.113,6.113,0,0,0,5.895,8.416l20.129-.768,13.845,14.624a6.111,6.111,0,0,0,10.1-1.895l19.885-48.754a27.416,27.416,0,0,1-33.206-4.5Zm109.138,32.881-17.333-42.5a27.5,27.5,0,0,1-9.715,5.089c-8.049,2.155-6.284,1.215-9.6,4.527a27.421,27.421,0,0,1-33.21,4.5L96.272,191.8a6.112,6.112,0,0,0,10.1,1.895l13.849-14.624,20.129.768a6.114,6.114,0,0,0,5.895-8.416Zm-45.767-41.526c5.837-5.941,6.506-5.429,14.819-7.694a15.525,15.525,0,0,0,10.876-11.071c2.858-10.85,2.116-9.539,9.914-17.478a15.848,15.848,0,0,0,3.981-15.121c-2.854-10.842-2.858-9.329,0-20.183a15.848,15.848,0,0,0-3.981-15.121c-7.8-7.939-7.056-6.632-9.914-17.478a15.525,15.525,0,0,0-10.876-11.071c-10.651-2.907-9.367-2.147-17.172-10.089A15.2,15.2,0,0,0,83.264.534c-10.647,2.9-9.161,2.907-19.827,0A15.192,15.192,0,0,0,48.579,4.587c-7.8,7.939-6.514,7.182-17.168,10.089A15.525,15.525,0,0,0,20.535,25.747c-2.854,10.846-2.116,9.539-9.914,17.478A15.839,15.839,0,0,0,6.64,58.346c2.854,10.834,2.858,9.321,0,20.179a15.857,15.857,0,0,0,3.981,15.124c7.8,7.939,7.056,6.628,9.914,17.478A15.525,15.525,0,0,0,31.411,122.2c8.55,2.33,9.188,1.964,14.815,7.694a15.183,15.183,0,0,0,19,2.223,15.157,15.157,0,0,1,16.248,0A15.178,15.178,0,0,0,100.474,129.892ZM37.309,67.224c0-20.259,16.137-36.682,36.041-36.682S109.39,46.965,109.39,67.224,93.254,103.906,73.35,103.906,37.309,87.483,37.309,67.224Z" transform="translate(82.665 0.001) rotate(25)" fill="#403042"/>
</svg>
