<?xml version="1.0" encoding="utf-8"?>
<!-- Generator: Adobe Illustrator 26.0.1, SVG Export Plug-In . SVG Version: 6.00 Build 0)  -->
<svg version="1.1" id="Layer_1" xmlns="http://www.w3.org/2000/svg" xmlns:xlink="http://www.w3.org/1999/xlink" x="0px" y="0px"
	 viewBox="0 0 595.28 841.89" style="enable-background:new 0 0 595.28 841.89;" xml:space="preserve">
<style type="text/css">
	.st0{fill:#09BED7;}
</style>
<path class="st0" d="M315.25,832.53c19.28,8.5,37.42,10.21,37.42-18.14V220.74c0-12.47-4.54-14.74-14.17-18.71
	c-3.97-2.27-259.69-113.4-265.92-116.23c-6.24-2.83-2.83-7.94,4.54-10.77c12.47-4.54,61.8-21.55,67.47-23.25
	c7.94-2.83,18.14-2.83,28.92,1.7c23.81,10.21,213.76,92.99,230.2,100.36c17.01,7.37,19.84,11.91,19.84,25.51v522.77
	c0,0-1.7,9.64,8.51,9.64h30.62c8.51,0,7.37-8.51,7.37-8.51V161.77c0-22.11-0.57-27.22-18.14-34.59c0,0-243.24-106.6-266.49-116.8
	c-14.74-6.24-32.32-7.37-48.19-1.7c-17.58,6.24-116.8,41.39-116.8,41.39C4.54,55.74,0,65.94,0,80.12V666.4
	c0,7.37,0,10.77,5.67,15.31L315.25,832.53z"/>
</svg>
