<?xml version="1.0" encoding="utf-8"?>
<!-- Generator: Adobe Illustrator 26.0.1, SVG Export Plug-In . SVG Version: 6.00 Build 0)  -->
<svg version="1.1" id="Layer_1" xmlns="http://www.w3.org/2000/svg" xmlns:xlink="http://www.w3.org/1999/xlink" x="0px" y="0px"
	 viewBox="0 0 449.1 151.5" style="enable-background:new 0 0 449.1 151.5;" xml:space="preserve">
<style type="text/css">
	.st0{fill:#FFFFFF;}
</style>
<g>
	<g>
		<path class="st0" d="M39.1,57.2c0,2.6-0.5,4.8-1.5,6.6c-1,1.8-2.4,3.2-4.1,4.3c-1.7,1.1-3.6,1.8-5.8,2.3s-4.4,0.7-6.7,0.7H2.1
			V23.4H21c1.8,0,3.7,0.2,5.6,0.6c1.9,0.4,3.7,1,5.2,1.9c1.6,0.9,2.8,2.2,3.8,3.7c1,1.6,1.5,3.6,1.5,6c0,2.6-0.7,4.8-2.2,6.6
			c-1.4,1.7-3.3,3-5.6,3.7V46c1.3,0.2,2.6,0.6,3.8,1.2s2.2,1.4,3.1,2.3c0.9,0.9,1.6,2,2.1,3.3C38.8,54.2,39.1,55.6,39.1,57.2
			L39.1,57.2z M26.1,37.2c0-1.6-0.6-2.8-1.8-3.5c-1.2-0.7-3.1-1.1-5.5-1.1h-5.6v9.8h6.2c2.2,0,3.8-0.4,5-1.3
			C25.5,40.2,26.1,38.9,26.1,37.2z M27.6,56.1c0-2-0.7-3.3-2.2-4.1c-1.5-0.8-3.4-1.1-5.9-1.1h-6.4v10.9h6.4c0.9,0,1.8-0.1,2.8-0.2
			c1-0.2,1.8-0.4,2.6-0.8c0.8-0.4,1.4-1,1.9-1.7C27.4,58.2,27.6,57.2,27.6,56.1z"/>
		<path class="st0" d="M78.9,54.1c0,2.7-0.5,5.2-1.5,7.4c-1,2.2-2.3,4.1-4,5.6s-3.7,2.7-5.9,3.6c-2.2,0.8-4.6,1.3-7.2,1.3
			c-2.5,0-4.9-0.4-7.2-1.3s-4.2-2-5.9-3.6c-1.7-1.5-3-3.4-4-5.6c-1-2.2-1.5-4.7-1.5-7.4c0-2.7,0.5-5.2,1.5-7.4c1-2.2,2.3-4.1,4-5.6
			s3.7-2.7,5.9-3.5c2.3-0.8,4.6-1.2,7.2-1.2c2.6,0,4.9,0.4,7.2,1.2c2.2,0.8,4.2,2,5.9,3.5s3,3.4,4,5.6S78.9,51.4,78.9,54.1z
			 M68.3,54.1c0-1.1-0.2-2.1-0.5-3.2c-0.4-1-0.9-1.9-1.5-2.7c-0.7-0.8-1.5-1.4-2.5-1.9s-2.1-0.7-3.4-0.7c-1.3,0-2.4,0.2-3.4,0.7
			s-1.8,1.1-2.5,1.9c-0.6,0.8-1.1,1.7-1.5,2.7c-0.3,1-0.5,2.1-0.5,3.2c0,1.1,0.2,2.1,0.5,3.2c0.3,1,0.8,2,1.5,2.8
			c0.7,0.8,1.5,1.5,2.5,2s2.1,0.7,3.4,0.7c1.3,0,2.4-0.2,3.4-0.7s1.8-1.2,2.5-2c0.7-0.8,1.2-1.8,1.5-2.8S68.3,55.2,68.3,54.1z"/>
		<path class="st0" d="M118.7,54.1c0,2.7-0.5,5.2-1.5,7.4c-1,2.2-2.3,4.1-4,5.6s-3.7,2.7-5.9,3.6c-2.2,0.8-4.6,1.3-7.2,1.3
			c-2.5,0-4.9-0.4-7.2-1.3s-4.2-2-5.9-3.6c-1.7-1.5-3-3.4-4-5.6c-1-2.2-1.5-4.7-1.5-7.4c0-2.7,0.5-5.2,1.5-7.4c1-2.2,2.3-4.1,4-5.6
			s3.7-2.7,5.9-3.5c2.3-0.8,4.6-1.2,7.2-1.2c2.6,0,4.9,0.4,7.2,1.2c2.2,0.8,4.2,2,5.9,3.5s3,3.4,4,5.6S118.7,51.4,118.7,54.1z
			 M108.1,54.1c0-1.1-0.2-2.1-0.5-3.2c-0.4-1-0.9-1.9-1.5-2.7c-0.7-0.8-1.5-1.4-2.5-1.9s-2.1-0.7-3.4-0.7c-1.3,0-2.4,0.2-3.4,0.7
			s-1.8,1.1-2.5,1.9c-0.6,0.8-1.1,1.7-1.5,2.7c-0.3,1-0.5,2.1-0.5,3.2c0,1.1,0.2,2.1,0.5,3.2c0.3,1,0.8,2,1.5,2.8
			c0.7,0.8,1.5,1.5,2.5,2s2.1,0.7,3.4,0.7c1.3,0,2.4-0.2,3.4-0.7s1.8-1.2,2.5-2c0.7-0.8,1.2-1.8,1.5-2.8S108.1,55.2,108.1,54.1z"/>
		<path class="st0" d="M157.7,71h-13.6l-11-16.1h-0.2V71h-11.1V20.2h11.1v30.9h0.2l10.7-13.6h13.4l-12.9,15.1L157.7,71z"/>
	</g>
	<g>
		<path class="st0" d="M46.4,101.3c0,4.2-0.8,7.8-2.3,10.8s-3.6,5.5-6.1,7.5c-2.5,1.9-5.4,3.4-8.6,4.3c-3.2,0.9-6.4,1.4-9.7,1.4H2
			V77.6h17.2c3.4,0,6.7,0.4,9.9,1.2c3.3,0.8,6.2,2.1,8.7,3.9c2.6,1.8,4.6,4.2,6.2,7.3C45.6,93.1,46.4,96.8,46.4,101.3L46.4,101.3z
			 M34.5,101.3c0-2.7-0.4-4.9-1.3-6.7c-0.9-1.8-2-3.2-3.5-4.2c-1.5-1.1-3.1-1.8-5-2.3c-1.9-0.4-3.8-0.7-5.7-0.7h-5.7v27.8h5.4
			c2.1,0,4-0.2,5.9-0.7s3.6-1.2,5-2.3c1.5-1.1,2.6-2.5,3.5-4.3C34,106.2,34.5,103.9,34.5,101.3z"/>
		<path class="st0" d="M83.9,108.9v1.3c0,0.4,0,0.9-0.1,1.3H59.5c0.1,0.9,0.4,1.8,0.8,2.6c0.5,0.8,1.1,1.4,1.8,2s1.6,1,2.5,1.3
			s1.9,0.5,2.9,0.5c1.7,0,3.2-0.3,4.4-1c1.2-0.6,2.2-1.5,3-2.5l7.7,4.8c-1.6,2.3-3.6,4-6.2,5.3c-2.6,1.2-5.6,1.8-9,1.8
			c-2.5,0-4.9-0.4-7.1-1.2c-2.2-0.8-4.2-1.9-5.9-3.4s-3-3.3-4-5.5s-1.4-4.7-1.4-7.5c0-2.7,0.5-5.2,1.4-7.4c0.9-2.2,2.2-4.1,3.8-5.6
			s3.5-2.7,5.7-3.6s4.6-1.3,7.1-1.3s4.7,0.4,6.8,1.2c2.1,0.8,3.8,2,5.3,3.6s2.6,3.5,3.5,5.7S83.9,106,83.9,108.9z M73.8,104.7
			c0-1.7-0.5-3.2-1.6-4.5s-2.7-1.9-4.9-1.9c-1.1,0-2.1,0.2-3,0.5s-1.7,0.8-2.4,1.4s-1.2,1.3-1.6,2c-0.4,0.8-0.6,1.6-0.7,2.5H73.8z"
			/>
		<path class="st0" d="M125.3,108.3c0,2.3-0.4,4.6-1.1,6.7c-0.7,2.1-1.8,4-3.1,5.7c-1.4,1.6-3,2.9-5,3.9s-4.2,1.5-6.7,1.5
			c-2.1,0-4-0.4-5.8-1.2c-1.8-0.8-3.3-2-4.3-3.4h-0.1v19.8h-11V91.8h10.5v4.1h0.2c1-1.3,2.5-2.5,4.3-3.5s4-1.5,6.4-1.5
			s4.6,0.5,6.6,1.4s3.6,2.2,5,3.8c1.4,1.6,2.4,3.5,3.2,5.6C124.9,103.8,125.3,106,125.3,108.3L125.3,108.3z M114.6,108.3
			c0-1.1-0.2-2.1-0.5-3.2c-0.3-1-0.8-1.9-1.5-2.7c-0.7-0.8-1.5-1.4-2.5-1.9s-2.1-0.7-3.4-0.7c-1.3,0-2.4,0.2-3.4,0.7
			s-1.8,1.1-2.5,1.9s-1.2,1.7-1.6,2.8c-0.4,1-0.6,2.1-0.6,3.2s0.2,2.1,0.6,3.2c0.4,1,0.9,1.9,1.6,2.8c0.7,0.8,1.5,1.5,2.5,1.9
			c1,0.5,2.1,0.7,3.4,0.7c1.3,0,2.4-0.2,3.4-0.7s1.8-1.1,2.5-1.9c0.6-0.8,1.1-1.7,1.5-2.8C114.4,110.5,114.6,109.4,114.6,108.3z"/>
		<path class="st0" d="M165.7,108.3c0,2.7-0.5,5.2-1.5,7.4s-2.3,4.1-4,5.6s-3.7,2.7-5.9,3.6c-2.2,0.8-4.6,1.3-7.2,1.3
			c-2.5,0-4.9-0.4-7.2-1.3s-4.2-2-5.9-3.6c-1.7-1.5-3-3.4-4-5.6s-1.5-4.7-1.5-7.4s0.5-5.2,1.5-7.4s2.3-4.1,4-5.6s3.7-2.7,5.9-3.5
			c2.3-0.8,4.6-1.2,7.2-1.2c2.6,0,4.9,0.4,7.2,1.2c2.2,0.8,4.2,2,5.9,3.5c1.7,1.5,3,3.4,4,5.6C165.2,103.2,165.7,105.6,165.7,108.3z
			 M155.1,108.3c0-1.1-0.2-2.1-0.5-3.2c-0.4-1-0.9-1.9-1.5-2.7c-0.7-0.8-1.5-1.4-2.5-1.9s-2.1-0.7-3.4-0.7c-1.3,0-2.4,0.2-3.4,0.7
			s-1.8,1.1-2.5,1.9c-0.6,0.8-1.1,1.7-1.5,2.7c-0.3,1-0.5,2.1-0.5,3.2s0.2,2.1,0.5,3.2c0.3,1,0.8,2,1.5,2.8s1.5,1.5,2.5,2
			s2.1,0.7,3.4,0.7c1.3,0,2.4-0.2,3.4-0.7s1.8-1.2,2.5-2s1.2-1.8,1.5-2.8S155.1,109.4,155.1,108.3z"/>
		<path class="st0" d="M189.7,101.6c-0.9-0.9-1.9-1.6-3.2-2.2c-1.2-0.6-2.5-0.9-3.8-0.9c-1,0-2,0.2-2.9,0.6s-1.3,1.1-1.3,2.1
			c0,0.9,0.5,1.6,1.4,2c1,0.4,2.5,0.9,4.7,1.3c1.3,0.3,2.5,0.6,3.8,1.1s2.4,1.1,3.5,1.9c1,0.8,1.9,1.8,2.5,3s0.9,2.6,0.9,4.2
			c0,2.1-0.4,3.9-1.3,5.3c-0.9,1.5-2,2.6-3.3,3.5c-1.4,0.9-2.9,1.5-4.6,1.9s-3.4,0.6-5.1,0.6c-2.7,0-5.4-0.4-8-1.3s-4.8-2.2-6.6-3.9
			l6.2-6.5c1,1.1,2.2,2,3.6,2.7s3,1.1,4.6,1.1c0.9,0,1.8-0.2,2.7-0.6c0.9-0.4,1.3-1.2,1.3-2.3c0-1-0.5-1.8-1.6-2.3s-2.8-1-5-1.5
			c-1.2-0.3-2.3-0.6-3.5-1.1c-1.2-0.4-2.2-1.1-3.1-1.8c-0.9-0.8-1.7-1.7-2.3-2.8c-0.6-1.1-0.9-2.5-0.9-4c0-2,0.4-3.7,1.3-5.1
			s1.9-2.6,3.3-3.5c1.3-0.9,2.8-1.6,4.5-2c1.6-0.4,3.3-0.6,4.9-0.6c2.5,0,5,0.4,7.4,1.2c2.4,0.8,4.4,2,6.1,3.5L189.7,101.6
			L189.7,101.6z"/>
		<path class="st0" d="M211,81.1c0,0.9-0.2,1.6-0.5,2.4c-0.3,0.7-0.8,1.4-1.3,1.9c-0.6,0.5-1.2,1-2,1.3s-1.6,0.5-2.5,0.5
			c-1.8,0-3.3-0.6-4.5-1.8c-1.2-1.2-1.8-2.6-1.8-4.3c0-0.8,0.2-1.6,0.5-2.3c0.3-0.7,0.8-1.4,1.3-1.9c0.6-0.5,1.3-1,2-1.3
			c0.8-0.3,1.6-0.5,2.5-0.5c0.8,0,1.7,0.2,2.5,0.5s1.5,0.7,2,1.3c0.6,0.5,1,1.2,1.3,1.9C210.8,79.3,211,80.2,211,81.1z M199.1,125.2
			V91.8h11v33.5h-11V125.2z"/>
		<path class="st0" d="M230.2,100v12.8c0,1.6,0.3,2.8,0.9,3.5c0.6,0.8,1.7,1.2,3.3,1.2c0.5,0,1.1,0,1.7-0.1s1.1-0.2,1.5-0.4l0.1,8.1
			c-0.8,0.3-1.7,0.5-2.9,0.7c-1.2,0.2-2.3,0.3-3.5,0.3c-2.2,0-4.1-0.3-5.6-0.8c-1.5-0.6-2.7-1.4-3.7-2.4c-0.9-1.1-1.6-2.3-2-3.8
			s-0.6-3.1-0.6-4.9V100H214v-8.2h5.3V83h10.8v8.8h7.9v8.2H230.2L230.2,100z"/>
		<path class="st0" d="M277.3,108.3c0,2.7-0.5,5.2-1.5,7.4s-2.3,4.1-4,5.6s-3.7,2.7-5.9,3.6c-2.2,0.8-4.6,1.3-7.2,1.3
			c-2.5,0-4.9-0.4-7.2-1.3s-4.2-2-5.9-3.6c-1.7-1.5-3-3.4-4-5.6s-1.5-4.7-1.5-7.4s0.5-5.2,1.5-7.4s2.3-4.1,4-5.6s3.7-2.7,5.9-3.5
			c2.3-0.8,4.6-1.2,7.2-1.2s4.9,0.4,7.2,1.2c2.2,0.8,4.2,2,5.9,3.5c1.7,1.5,3,3.4,4,5.6C276.8,103.2,277.3,105.6,277.3,108.3z
			 M266.7,108.3c0-1.1-0.2-2.1-0.5-3.2c-0.4-1-0.9-1.9-1.5-2.7c-0.7-0.8-1.5-1.4-2.5-1.9s-2.1-0.7-3.4-0.7s-2.4,0.2-3.4,0.7
			s-1.8,1.1-2.5,1.9c-0.6,0.8-1.1,1.7-1.5,2.7c-0.3,1-0.5,2.1-0.5,3.2s0.2,2.1,0.5,3.2c0.3,1,0.8,2,1.5,2.8s1.5,1.5,2.5,2
			s2.1,0.7,3.4,0.7s2.4-0.2,3.4-0.7s1.8-1.2,2.5-2s1.2-1.8,1.5-2.8C266.6,110.5,266.7,109.4,266.7,108.3z"/>
		<path class="st0" d="M302.3,100.8c-0.5-0.1-1-0.2-1.4-0.3c-0.5,0-0.9-0.1-1.4-0.1c-1.5,0-2.7,0.3-3.7,0.8s-1.8,1.2-2.4,1.9
			c-0.6,0.8-1,1.6-1.3,2.5s-0.4,1.7-0.4,2.3v17.2h-11V91.8h10.6v4.8h0.1c0.9-1.7,2.1-3.1,3.6-4.2c1.6-1.1,3.4-1.6,5.4-1.6
			c0.4,0,0.9,0,1.3,0.1c0.4,0,0.8,0.1,1,0.2L302.3,100.8L302.3,100.8z"/>
		<path class="st0" d="M328.1,130.2c-0.7,1.7-1.4,3.3-2.3,4.7c-0.8,1.4-1.8,2.5-3,3.5c-1.1,1-2.5,1.7-4,2.2s-3.4,0.7-5.5,0.7
			c-1,0-2.1-0.1-3.2-0.2s-2-0.3-2.9-0.5l1.2-9.3c0.5,0.2,1.1,0.3,1.8,0.4c0.6,0.1,1.2,0.2,1.8,0.2c1.7,0,2.9-0.4,3.7-1.2
			c0.8-0.8,1.4-1.9,1.9-3.3l1.1-2.8l-14-32.9h12.2l7.5,21.5h0.2l6.7-21.5h11.7L328.1,130.2L328.1,130.2z"/>
	</g>
</g>
</svg>
