<svg xmlns="http://www.w3.org/2000/svg" width="181.249" height="79.495" viewBox="0 0 181.249 79.495">
  <path id="Icon_payment-visa-electron" data-name="Icon payment-visa-electron" d="M74.982,79.466h8.441v2.22H77.2l-.888,4.886H81.2l-.444,2.22H75.872l-.444,5.331h6.219v2.22H72.764l2.219-16.878Zm12,14.659h6.663l-.444,2.22H84.31l2.22-16.882H89.2l-2.22,14.661ZM98.082,79.466h8.885l-.444,2.22H100.3l-.444,4.886h4.886l-.444,2.22H99.416l-.888,5.331h6.663l-.444,2.22H95.861l2.22-16.878Zm13.327,2.22a8.066,8.066,0,0,1,5.775-2.666,6.054,6.054,0,0,1,4.442,1.776l-1.332,2.22a5.152,5.152,0,0,0-3.554-1.776q-5.332,0-6.219,6.663a6.256,6.256,0,0,0,.888,4.665,4.076,4.076,0,0,0,3.554,2,6.4,6.4,0,0,0,4.442-2.22v3.11a7.2,7.2,0,0,1-4.442,1.332q-7.563,0-6.663-8.885a10.4,10.4,0,0,1,3.108-6.219Zm12.883-2.22h12.439l-.444,2.22h-5.331L129.18,96.346h-2.666l2.22-14.659h-4.886l.444-2.22Zm23.988,2.22a5.281,5.281,0,0,1-.444,4.665,5.193,5.193,0,0,1-3.554,2.887l4,7.109h-2.666l-4-7.109h-1.332l-.888,7.109h-2.22l2.22-16.882h5.331a3.465,3.465,0,0,1,3.554,2.22Zm-3.11,4q2.219-4-.888-4h-2.666l-.888,5.331h2.666l1.776-1.332Zm21.324,2.222q-1.778,8.893-8.441,8.885a6.126,6.126,0,0,1-5.109-2.666,8.256,8.256,0,0,1-1.555-6.219q1.767-8.882,8.441-8.885,7.553,0,6.665,8.885Zm-3.11-4.888a4.021,4.021,0,0,0-3.554-2.22q-5.332,0-6.219,7.109a6.97,6.97,0,0,0,.888,4.886,4,4,0,0,0,3.554,2.22c3.554,0,5.619-2.367,6.219-7.109a7,7,0,0,0-.888-4.886Zm20.436-3.553L181.6,96.347h-2.22L173.16,83.464l-2.22,12.883h-2.22l2.666-16.882h2.22L179.381,91.9l2.22-12.439ZM172.269,57.254h.444V57.7h-.444v.444h.444v.444h.444l-.444-.444.444-.444a.4.4,0,0,0-.444-.444h-.888v1.332h.444V57.254ZM33.1,23.05c-.71-3.632-3.451-4.78-6.637-4.78H2.745L2.571,19.42c16.282,4.16,29.649,13.01,35.668,29.739Zm6.638,33.984-1.5-7.877c-3.1-8.232-10.625-15.843-19.122-19.3L31.065,75h15.49l23.1-56.731H54.076L39.741,57.034ZM81.073,75.085l9.2-56.814H75.583L66.378,75.085ZM121.16,17.3c-14.514,0-24.688,7.7-24.778,18.759-.091,8.147,7.257,12.657,12.83,15.4,5.755,2.742,7.612,4.6,7.612,7.076,0,3.806-4.6,5.49-8.76,5.49-5.929,0-9.115-.71-13.806-2.922l-1.948-.973-2.039,12.74c3.451,1.593,9.735,3.012,16.372,3.012,15.4.091,25.4-7.612,25.578-19.379,0-6.463-3.98-11.328-12.392-15.4-5.129-2.561-8.225-4.426-8.225-7.076,0-2.387,2.652-4.87,8.406-4.87a24.411,24.411,0,0,1,10.973,2.13l1.329.7,2.032-12.3A36.5,36.5,0,0,0,121.16,17.3Zm39.474.973c-3.542,0-6.2,1.064-7.7,4.78L131.16,75.085h15.4c2.483-6.987,3.1-8.5,3.1-8.5h18.759s.446,1.948,1.767,8.5H183.82L171.963,18.271H160.634Zm-6.819,36.641s1.238-3.277,5.845-15.843c-.091.091,1.238-3.277,1.948-5.4l1.058,4.87c2.742,13.541,3.368,16.372,3.368,16.372h-12.22Z" transform="translate(-2.571 -17.297)" fill="#312533"/>
</svg>
