<svg xmlns="http://www.w3.org/2000/svg" width="24.092" height="22.371" viewBox="0 0 24.092 22.371">
  <path id="Icon_ionic-ios-star" data-name="Icon ionic-ios-star" d="M25.428,11.119H17.517l-2.4-7.174a.871.871,0,0,0-1.635,0l-2.4,7.174H3.11a.863.863,0,0,0-.86.86.632.632,0,0,0,.016.145.827.827,0,0,0,.36.608l6.5,4.582-2.5,7.255a.863.863,0,0,0,.3.968.832.832,0,0,0,.484.21,1.054,1.054,0,0,0,.538-.194L14.3,21.03l6.346,4.523a1.008,1.008,0,0,0,.538.194.773.773,0,0,0,.479-.21.852.852,0,0,0,.3-.968l-2.5-7.255,6.448-4.625.156-.134a.9.9,0,0,0,.28-.575A.911.911,0,0,0,25.428,11.119Z" transform="translate(-2.25 -3.375)" fill="#f0f0f0"/>
</svg>
