<svg xmlns="http://www.w3.org/2000/svg" width="151.042" height="90.625" viewBox="0 0 151.042 90.625">
  <path id="Icon_payment-maestro" data-name="Icon payment-maestro" d="M110.871,16.35A45.134,45.134,0,0,0,80.662,27.9a45.312,45.312,0,1,0,0,67.53A45.31,45.31,0,1,0,110.871,16.35ZM37.416,73.066l3.442-18.072L32.682,73.066H27.518l-.861-18.072L23.215,73.066H18.052l4.3-23.668h9.037l.43,14.631L38.275,49.4h9.467L43.008,73.066H37.416ZM63.665,62.739l-1.29,6.886v1.291l-.43.861v1.291H57.21V70.915Q55.487,73.5,51.186,73.5q-5.163,0-5.164-5.593,0-7.314,9.9-7.315a6.112,6.112,0,0,1,2.581.43V59.726C58.5,58.585,57.352,58,55.059,58a14.846,14.846,0,0,0-4.734.43h-.861l-.43.43.43-4.3A25.369,25.369,0,0,1,56.35,53.27q7.746,0,7.745,5.593a20.245,20.245,0,0,1-.43,3.875Zm17.213,9.9a24,24,0,0,1-5.594.861q-9.9,0-9.9-8.606,0-11.62,9.9-11.618,7.746,0,7.745,6.886a20.741,20.741,0,0,1-.43,4.734H70.982v.861c0,2.3,1.574,3.442,4.734,3.442A13.315,13.315,0,0,0,81.741,67.9l-.863,4.731ZM98.089,58h-4.3q-2.583,0-2.581,1.291t2.581,2.151A5.8,5.8,0,0,1,97.66,67.04q0,6.454-9.037,6.454h-1.29a3.918,3.918,0,0,0-1.722-.43H83.888l-.861-.43H82.6l.861-4.3a41.69,41.69,0,0,0,5.164.861q3.439,0,3.442-1.722c0-.861-.861-1.573-2.581-2.151q-4.742-2.151-4.734-5.593,0-6.454,9.037-6.454c.283,0,1.077.072,2.367.216a27.044,27.044,0,0,0,2.8.216L98.09,58Zm9.9,14.631a25.505,25.505,0,0,1-4.3.861q-4.306,0-4.3-4.3V67.471l.43-1.722V64.027L102.824,49.4h5.593l-.861,4.3h3.013l-.861,4.734H106.7L105.4,66.61a1.243,1.243,0,0,0-.43.861c0,.861.712,1.291,2.151,1.291a2.488,2.488,0,0,0,1.722-.43l-.861,4.3Zm7.745.431h-6.025L113.15,53.7h5.593l-.861,3.012c1.722-2,3.442-3.012,5.164-3.012h1.291l.43.43L122.615,59.3h-1.29q-3.01,0-5.592,13.771Zm27.111-8.608Q141.552,73.5,131.655,73.5q-9.469,0-9.467-9.037a10.82,10.82,0,0,1,3.228-7.96,11.352,11.352,0,0,1,8.392-3.228q9.037,0,9.037,8.606v2.583ZM51.615,67.471c0,1.149.712,1.722,2.151,1.722q3.872,0,3.873-4.734H56.35C53.189,64.459,51.615,65.468,51.615,67.471Zm26.25-7.315a2.282,2.282,0,0,0-2.581-2.583q-3.015,0-3.873,3.442h6.454v-.859ZM133.806,58q-4.742,0-4.734,6.454,0,4.306,3.013,4.3,3.439,0,4.734-4.734V61.876c0-2.581-1.009-3.872-3.012-3.872Z" transform="translate(-5.141 -16.35)" fill="#312533"/>
</svg>
