<svg xmlns="http://www.w3.org/2000/svg" width="151.293" height="90.624" viewBox="0 0 151.293 90.624">
  <path id="Icon_payment-mastercard-alt" data-name="Icon payment-mastercard-alt" d="M156.413,61.662a45.3,45.3,0,0,0-5.992-22.843,52.037,52.037,0,0,0-16.477-16.477A48.106,48.106,0,0,0,111.1,16.35a43.219,43.219,0,0,0-27.338,9.361A45.539,45.539,0,0,1,97.992,49.3h-4.12q-3-11.981-13.106-21.346Q70.655,37.322,67.66,49.3H63.54A45.5,45.5,0,0,1,77.77,25.711,43.247,43.247,0,0,0,50.432,16.35a48.079,48.079,0,0,0-22.843,5.992A51.961,51.961,0,0,0,11.112,38.819,45.252,45.252,0,0,0,5.12,61.662,45.219,45.219,0,0,0,11.112,84.5a51.909,51.909,0,0,0,16.477,16.477,48.021,48.021,0,0,0,22.843,5.992A43.22,43.22,0,0,0,77.77,97.613,47.2,47.2,0,0,1,63.913,75.894h4.12A45.573,45.573,0,0,0,80.766,95.367,45.639,45.639,0,0,0,93.5,75.894h4.12A47.311,47.311,0,0,1,83.762,97.613a43.186,43.186,0,0,0,27.338,9.361,48.037,48.037,0,0,0,22.843-5.992A51.981,51.981,0,0,0,150.42,84.5a45.311,45.311,0,0,0,5.992-22.843ZM24.969,50.8h7.116L28.34,72.521H23.847l2.621-16.477L20.476,72.521H17.1V56.043l-3,16.477H9.615L13.36,50.8H20.1V64.283Zm20.97,8.988a17.759,17.759,0,0,1-.375,3.371c-.25,1.749-.506,3.371-.749,4.868a25.075,25.075,0,0,1-.749,3.371v1.124H40.322V70.652A5.423,5.423,0,0,1,35.454,72.9a4.042,4.042,0,0,1-3-1.124,6.063,6.063,0,0,1-1.124-3.745c0-2.247.618-3.868,1.872-4.868a10.657,10.657,0,0,1,6.365-1.872h1.872V60.163c0-1-1-1.5-3-1.5a21.035,21.035,0,0,0-4.868.749c.243-1,.5-2.247.749-3.745a15.262,15.262,0,0,1,5.243-1.124q6.367,0,6.367,5.243ZM40.7,64.658H39.574c-2.5,0-3.745.879-3.745,2.621,0,1.252.5,1.872,1.5,1.872a2.536,2.536,0,0,0,2.247-1.124A4.577,4.577,0,0,0,40.7,64.658Zm18.35-9.737-.749,4.12a11.529,11.529,0,0,0-3.371-.375c-1.5,0-2.247.5-2.247,1.5a1.5,1.5,0,0,0,.375,1.124l1.5.749q3.371,1.879,3.371,4.868,0,5.995-7.116,5.992a22.123,22.123,0,0,1-4.868-.375c.243-1,.5-2.371.749-4.12a20.291,20.291,0,0,0,4.12.749c1.742,0,2.621-.5,2.621-1.5a1.554,1.554,0,0,0-.375-1.124A4.785,4.785,0,0,0,51.181,65.4a5.041,5.041,0,0,1-3.371-4.868q0-5.984,6.741-5.992a17.446,17.446,0,0,1,4.5.377Zm7.114,0h2.247l-.375,4.493H65.413a14.137,14.137,0,0,1-.375,3.371,11.7,11.7,0,0,1-.187,1.5,2.952,2.952,0,0,1-.562,1.5v1.5a1.322,1.322,0,0,0,1.5,1.5,3.31,3.31,0,0,0,1.5-.375l-.749,4.12a11.34,11.34,0,0,1-3.371.375q-3.746,0-3.745-3.745a17.561,17.561,0,0,1,.749-4.868L62.039,52.3h4.493l-.372,2.624Zm16.852,5.992a23.621,23.621,0,0,1-.375,4.493H73.277a3.615,3.615,0,0,0,.749,2.621A4.579,4.579,0,0,0,77.4,69.151a9.923,9.923,0,0,0,4.868-1.5l-.749,4.493a13.23,13.23,0,0,1-4.868.749q-7.866,0-7.865-7.865,0-4.861,2.247-7.489a6.783,6.783,0,0,1,5.617-3,6.6,6.6,0,0,1,4.868,1.872,6.142,6.142,0,0,1,1.5,4.495Zm-9.363.749h5.244V60.538l-.375-.749a1.111,1.111,0,0,0-.375-.749,1.057,1.057,0,0,1-.749-.375h-.749q-2.246,0-3,3Zm20.972-6.741a27.9,27.9,0,0,0-1.872,5.244c-1-.245-1.872.375-2.621,1.872a73.725,73.725,0,0,0-1.872,10.485H83.389l.375-1.124q1.49-10.478,2.247-16.477H90.5l-.375,2.621a4.786,4.786,0,0,1,2.247-2.247,1.63,1.63,0,0,1,2.246-.373ZM110.35,51.55l-.749,4.493a9.33,9.33,0,0,0-4.12-1.124,5.024,5.024,0,0,0-4.493,2.247q-1.5,1.879-1.5,5.992a5.164,5.164,0,0,0,1.124,3.745,3.545,3.545,0,0,0,3,1.5,9.336,9.336,0,0,0,4.12-1.124l-.749,4.868a9.3,9.3,0,0,1-4.12.749,7.491,7.491,0,0,1-5.992-2.621q-2.246-2.246-2.247-6.741a14.48,14.48,0,0,1,3-9.361,8.6,8.6,0,0,1,7.489-3.745,18.033,18.033,0,0,1,5.242,1.124Zm13.481,8.24a11.759,11.759,0,0,1-.187,1.5,11.135,11.135,0,0,0-.187,1.872c-.25,1.252-.506,2.938-.749,5.055a26.458,26.458,0,0,1-.749,4.306h-3.745V70.648a5.424,5.424,0,0,1-4.868,2.247,4.042,4.042,0,0,1-3-1.124,6.063,6.063,0,0,1-1.124-3.745c0-2.247.618-3.868,1.872-4.868a10.046,10.046,0,0,1,5.992-1.872h1.872a1.54,1.54,0,0,0,.375-1.124c0-1-1-1.5-3-1.5a21.035,21.035,0,0,0-4.868.749,12.137,12.137,0,0,1,.749-3.745,15.263,15.263,0,0,1,5.243-1.124q6.362,0,6.364,5.244Zm-5.242,4.868h-1.124c-2.5,0-3.745.879-3.745,2.621,0,1.252.5,1.872,1.5,1.872a2.536,2.536,0,0,0,2.247-1.124A4.577,4.577,0,0,0,118.589,64.658Zm16.851-9.737a9.975,9.975,0,0,0-1.872,5.244c-1-.245-1.872.375-2.621,1.872a75.461,75.461,0,0,0-1.872,10.485h-4.868l.375-1.124q1.483-8.186,2.247-16.477h4.493a8.426,8.426,0,0,1-.375,2.621,4.786,4.786,0,0,1,2.247-2.247,2.679,2.679,0,0,1,2.246-.373Zm11.609-4.12h4.868l-3.744,21.721H143.68l.375-1.5a4.986,4.986,0,0,1-4.12,1.872c-2,0-3.371-.62-4.12-1.872a8.931,8.931,0,0,1-1.872-5.244,11.519,11.519,0,0,1,2.621-7.865,5.871,5.871,0,0,1,5.244-3,6.469,6.469,0,0,1,4.493,2.248l.749-6.367Zm-1.872,11.609c0-2.247-.881-3.371-2.621-3.371a3.158,3.158,0,0,0-2.621,1.872,7.917,7.917,0,0,0-.749,4.12q0,3.371,2.247,3.371a3.244,3.244,0,0,0,2.621-1.5,7.438,7.438,0,0,0,1.122-4.495Z" transform="translate(-5.12 -16.35)" fill="#312533"/>
</svg>
