<svg xmlns="http://www.w3.org/2000/svg" width="94.062" height="31.887" viewBox="0 0 94.062 31.887">
  <path id="Icon_awesome-paypal" data-name="Icon awesome-paypal" d="M7.833,20.805c-.246,1.35-1.223,7.643-1.512,9.422-.021.127-.07.176-.211.176H.865a.854.854,0,0,1-.851-.977L4.134,3.277A1.428,1.428,0,0,1,5.541,2.088c10.709,0,11.609-.26,14.344.8,4.226,1.638,4.613,5.59,3.094,9.865-1.512,4.4-5.1,6.293-9.851,6.349-3.052.049-4.887-.492-5.295,1.7ZM25.109,10.688c-.127-.091-.176-.127-.211.091a16.456,16.456,0,0,1-.619,2.363c-2.805,8-10.582,7.305-14.379,7.305a.707.707,0,0,0-.766.661C7.545,30.98,7.228,33.04,7.228,33.04a.749.749,0,0,0,.745.907h4.465A1.261,1.261,0,0,0,13.662,32.9c.049-.38-.077.429,1.012-6.42.323-1.547,1.005-1.385,2.06-1.385,4.992,0,8.888-2.025,10.048-7.9.457-2.447.323-5.02-1.673-6.511Z" transform="translate(-0.006 -2.06)" fill="#f0f0f0"/>
  <path id="Icon_payment-paypal" data-name="Icon payment-paypal" d="M35.779,24.29H33.522a.652.652,0,0,0-.539.286l-3.114,4.585L28.55,24.755a.653.653,0,0,0-.625-.465H25.707a.391.391,0,0,0-.37.517L27.822,32.1l-2.337,3.3a.391.391,0,0,0,.319.617h2.255a.655.655,0,0,0,.536-.28L36.1,24.9a.391.391,0,0,0-.321-.614ZM20.691,28.66A2.5,2.5,0,0,1,18.157,30.8a1.74,1.74,0,0,1-1.86-2.184,2.512,2.512,0,0,1,2.516-2.161,1.891,1.891,0,0,1,1.5.612,1.934,1.934,0,0,1,.381,1.588ZM23.82,24.29H21.575a.391.391,0,0,0-.386.33l-.1.627-.157-.227a3.2,3.2,0,0,0-2.653-.942A5.163,5.163,0,0,0,13.268,28.6a4.237,4.237,0,0,0,.836,3.449,3.513,3.513,0,0,0,2.827,1.141A4.3,4.3,0,0,0,20.041,31.9l-.1.624a.391.391,0,0,0,.386.452h2.022a.651.651,0,0,0,.644-.55l1.214-7.687a.391.391,0,0,0-.386-.451Zm-13.475.054c-.256,1.683-1.541,1.683-2.785,1.683H6.853l.5-3.143a.39.39,0,0,1,.386-.33H8.06c.846,0,1.646,0,2.058.482a1.566,1.566,0,0,1,.228,1.308ZM9.8,19.952H5.115a.651.651,0,0,0-.644.55l-1.9,12.024a.391.391,0,0,0,.386.452H5.2a.651.651,0,0,0,.643-.55l.512-3.244A.651.651,0,0,1,7,28.633H8.483c3.089,0,4.872-1.494,5.337-4.457a3.61,3.61,0,0,0-.6-3.026,4.347,4.347,0,0,0-3.417-1.2Zm50.107.33L57.988,32.526a.391.391,0,0,0,.386.452h1.936a.651.651,0,0,0,.643-.55L62.85,20.4a.391.391,0,0,0-.386-.452H60.3a.391.391,0,0,0-.386.33ZM54.136,28.66A2.5,2.5,0,0,1,51.6,30.8a1.74,1.74,0,0,1-1.86-2.184,2.512,2.512,0,0,1,2.516-2.161,1.891,1.891,0,0,1,1.5.612,1.934,1.934,0,0,1,.381,1.588Zm3.129-4.371H55.02a.391.391,0,0,0-.386.33l-.1.628-.157-.227a3.2,3.2,0,0,0-2.653-.942A5.163,5.163,0,0,0,46.713,28.6a4.237,4.237,0,0,0,.836,3.449,3.513,3.513,0,0,0,2.827,1.141A4.3,4.3,0,0,0,53.485,31.9l-.1.624a.391.391,0,0,0,.386.452h2.022a.651.651,0,0,0,.644-.55l1.214-7.687a.391.391,0,0,0-.386-.452Zm-13.475.054c-.256,1.683-1.541,1.683-2.785,1.683H40.3l.5-3.143a.39.39,0,0,1,.386-.33h.325c.846,0,1.646,0,2.058.482a1.568,1.568,0,0,1,.227,1.308Zm-.541-4.392H38.56a.651.651,0,0,0-.644.55l-1.9,12.024a.391.391,0,0,0,.386.452h2.406a.456.456,0,0,0,.45-.385l.538-3.409a.651.651,0,0,1,.643-.55h1.484c3.089,0,4.872-1.494,5.337-4.457a3.61,3.61,0,0,0-.6-3.026,4.347,4.347,0,0,0-3.417-1.2Z" transform="translate(31.207 -12.04)" fill="#f0f0f0"/>
</svg>
