<svg xmlns="http://www.w3.org/2000/svg" width="72.493" height="72.432" viewBox="0 0 72.493 72.432">
  <g id="Icon_ionic-ios-rocket" data-name="Icon ionic-ios-rocket" transform="translate(-3.366 -3.372)">
    <path id="Path_60" data-name="Path 60" d="M75.477,4.355a.769.769,0,0,0-.575-.592C65.425,1.446,43.527,9.7,31.663,21.567A51.281,51.281,0,0,0,25.9,28.379a21.457,21.457,0,0,0-10.435,1.307C6.664,33.553,4.1,43.657,3.389,47.995A1.561,1.561,0,0,0,5.1,49.807l14.129-1.55a31.409,31.409,0,0,0,.192,3.188,3.162,3.162,0,0,0,.923,1.934l5.47,5.47a3.162,3.162,0,0,0,1.934.923,31.349,31.349,0,0,0,3.171.192l-1.55,14.111a1.561,1.561,0,0,0,1.812,1.707c4.338-.7,14.46-3.258,18.31-12.055a21.554,21.554,0,0,0,1.324-10.4,51.364,51.364,0,0,0,6.829-5.766C69.554,35.713,77.76,14.3,75.477,4.355ZM47.046,32.211a7.44,7.44,0,1,1,10.522,0A7.434,7.434,0,0,1,47.046,32.211Z" transform="translate(0 0)" fill="#312533"/>
    <path id="Path_61" data-name="Path 61" d="M21.849,31.8h0A6.609,6.609,0,0,1,18.4,33.19a4.689,4.689,0,0,1-5.4-5.4,6.479,6.479,0,0,1,1.376-3.432l.017-.017a.582.582,0,0,0-.488-.993,8.008,8.008,0,0,0-4.686,2.282C6.083,28.765,5.787,40.4,5.787,40.4s11.655-.3,14.791-3.432a7.956,7.956,0,0,0,2.282-4.686A.6.6,0,0,0,21.849,31.8Z" transform="translate(3.577 29.509)" fill="#312533"/>
  </g>
</svg>
