<svg xmlns="http://www.w3.org/2000/svg" width="223.65" height="201.018" viewBox="0 0 223.65 201.018">
  <path id="Icon_awesome-youtube" data-name="Icon awesome-youtube" d="M181.568,24.784a23.166,23.166,0,0,0-16.3-16.406C150.89,4.5,93.235,4.5,93.235,4.5S35.581,4.5,21.2,8.378A23.167,23.167,0,0,0,4.9,24.784C1.05,39.255,1.05,69.449,1.05,69.449s0,30.194,3.853,44.665a22.821,22.821,0,0,0,16.3,16.144c14.378,3.878,72.032,3.878,72.032,3.878s57.654,0,72.032-3.878a22.821,22.821,0,0,0,16.3-16.144c3.853-14.472,3.853-44.665,3.853-44.665s0-30.194-3.853-44.665ZM74.379,96.862V42.035l48.188,27.414L74.379,96.862Z" transform="matrix(0.883, 0.469, -0.469, 0.883, 62.046, -4.466)" fill="#403042"/>
</svg>
